<svg width="557" height="145" viewBox="0 0 557 145" fill="none" xmlns="http://www.w3.org/2000/svg">
<path d="M189.85 33.7217C189.85 62.0792 187.619 91.2242 189.85 119.506C190.2 123.935 207.532 131.294 212.024 132.545C236.198 139.279 257.503 126.369 281.714 126.369" stroke="#1E1E1E" stroke-width="5" stroke-linecap="round" stroke-linejoin="round"/>
<path d="M193.545 82.2013C214.001 76.5033 237.982 72.8929 256.899 63.6719" stroke="#1E1E1E" stroke-width="5" stroke-linecap="round" stroke-linejoin="round"/>
<path d="M179.125 38.0336C212.92 35.4992 246.588 25.6807 280.492 25.6807" stroke="#1E1E1E" stroke-width="5" stroke-linecap="round" stroke-linejoin="round"/>
<path d="M319.265 139.979C315.874 105.672 309.762 69.3809 309.762 34.979C309.762 31.341 307.569 16.8721 310.466 14.0476C313.331 11.2548 331.989 34.2088 334.752 36.3515C341.365 41.4797 394.487 85.7205 403.034 80.9594C406.691 78.9216 404.562 68.7592 405.145 65.3466C407.451 51.8602 412.735 37.53 417.464 24.6848C419.54 19.0465 422.557 -4.87823 428.551 5.64072C431.992 11.6792 432.897 19.3588 435.063 25.8858C440.708 42.8983 450.556 58.2246 458.116 74.4398C467.253 94.0352 470.191 115.969 474.483 136.891" stroke="#1E1E1E" stroke-width="5" stroke-linecap="round" stroke-linejoin="round"/>
<path d="M519.094 26.6797C499.188 26.6797 488.631 29.6874 493.929 52.9297C498.654 73.66 522.542 68.5112 539.508 70.0866C583.865 74.2051 514.455 125.503 490.585 125.503" stroke="#1E1E1E" stroke-width="5" stroke-linecap="round" stroke-linejoin="round"/>
<path d="M81.7402 27.4151C100.756 27.4151 118.251 24.0619 136.772 24.0619C144.448 24.0619 185.852 22.2544 188.365 17.3555" stroke="#1E1E1E" stroke-width="5" stroke-linecap="round" stroke-linejoin="round"/>
<path d="M130.651 28.0742C130.651 38.7314 130.694 49.3894 130.615 60.0463C130.52 73.0401 130.526 86.1623 128.816 99.0727C127.583 108.376 125.45 118.189 119.6 125.886C108.201 140.883 83.2586 141.835 65.9258 141.995C53.3745 142.11 40.9709 140.285 29.4951 135.116C18.3954 130.116 11.6103 122.556 3 114.62" stroke="#1E1E1E" stroke-width="5" stroke-linecap="round" stroke-linejoin="round"/>
</svg>
