<svg width="300" height="300" viewBox="0 0 300 300" fill="none" xmlns="http://www.w3.org/2000/svg">
<path d="M300 229.438H0V229.587H300V229.438Z" fill="#EBEBEB"/>
<path d="M120.261 235.152H104.663V235.302H120.261V235.152Z" fill="#EBEBEB"/>
<path d="M63.9359 233.523H31.4753V233.673H63.9359V233.523Z" fill="#EBEBEB"/>
<path d="M104.061 240.723H88.2712V240.873H104.061V240.723Z" fill="#EBEBEB"/>
<path d="M178.235 239.715H154.936V239.865H178.235V239.715Z" fill="#EBEBEB"/>
<path d="M189.994 239.715H183.577V239.865H189.994V239.715Z" fill="#EBEBEB"/>
<path d="M269.941 237.182H237.208V237.332H269.941V237.182Z" fill="#EBEBEB"/>
<path d="M142.209 202.679H26.3491C24.4609 202.679 22.9243 201.143 22.9243 199.255V36.3955C22.9243 34.5073 24.4609 32.9707 26.3491 32.9707H142.209C144.096 32.9707 145.633 34.5073 145.633 36.3955V199.255C145.633 201.143 144.096 202.679 142.209 202.679ZM26.3491 33.1213C24.5431 33.1213 23.0743 34.5901 23.0743 36.3961V199.255C23.0743 201.061 24.5431 202.53 26.3491 202.53H142.209C144.014 202.53 145.483 201.061 145.483 199.255V36.3955C145.483 34.5901 144.014 33.1207 142.209 33.1207L26.3491 33.1213Z" fill="#EBEBEB"/>
<path d="M271.986 202.679H156.127C154.239 202.679 152.703 201.143 152.703 199.255V36.3955C152.703 34.5073 154.24 32.9707 156.127 32.9707H271.986C273.875 32.9707 275.411 34.5073 275.411 36.3955V199.255C275.412 201.143 273.875 202.679 271.986 202.679ZM156.127 33.1213C154.322 33.1213 152.853 34.5901 152.853 36.3961V199.255C152.853 201.061 154.322 202.53 156.127 202.53H271.986C273.792 202.53 275.261 201.061 275.261 199.255V36.3955C275.261 34.5901 273.792 33.1207 271.986 33.1207L156.127 33.1213Z" fill="#EBEBEB"/>
<path d="M127.293 229.438C127.293 229.438 117.776 218.076 116.663 206.113C115.052 188.781 132.398 209.747 137.557 205.29C142.716 200.833 126.389 180.186 139.614 176.178C152.839 172.169 156.039 187.33 161.27 198.421C169.843 216.594 170.369 170.446 184.772 192.607C194.161 207.054 189.104 229.439 189.104 229.439L127.293 229.438Z" fill="#F5F5F5"/>
<path d="M187.964 229.439C187.964 229.439 177.875 219.17 180.709 208.323C184.814 192.607 191.53 211.623 196.815 207.584C202.099 203.544 196.06 184.817 207.326 181.187C218.592 177.557 216.359 191.305 216.919 201.363C217.837 217.844 232.424 176.001 236.538 196.1C239.22 209.202 227.529 229.438 227.529 229.438H187.964V229.439Z" fill="#F5F5F5"/>
<path d="M212.257 229.439C212.717 228.291 214.147 220.097 227.317 213.588C221.659 221.141 220.132 226.818 220.409 229.439H212.257Z" fill="#E0E0E0"/>
<path d="M63.4218 229.439C63.3828 227.711 61.998 212.989 48.7068 205.568C52.7418 216.944 51.8514 225.493 50.0268 229.439H63.4218Z" fill="#F5F5F5"/>
<path d="M56.0381 229.44C55.7123 228.306 55.3793 220.208 42.2219 213.775C47.1791 221.24 47.9849 226.851 47.3045 229.44H56.0381Z" fill="#F5F5F5"/>
<path d="M101.747 229.438C101.766 228.382 102.443 219.388 108.944 214.854C106.97 221.804 107.406 227.028 108.298 229.438H101.747Z" fill="#F5F5F5"/>
<path d="M105.358 229.438C105.517 228.745 105.68 223.798 112.115 219.867C109.69 224.428 109.296 227.856 109.629 229.438H105.358Z" fill="#F5F5F5"/>
<path d="M144.258 229.439C143.895 228.068 143.524 218.284 128.858 210.512C134.384 219.532 135.282 226.31 134.524 229.439H144.258Z" fill="#E0E0E0"/>
<path d="M148.889 229.439C148.996 228.403 151.439 221.006 142.516 215.131C144.182 221.949 142.974 227.074 141.53 229.439H148.889Z" fill="#E0E0E0"/>
<path d="M216.969 229.439C216.861 228.6 217.451 222.612 209.126 217.855C211.754 223.375 211.737 227.524 211.012 229.439H216.969Z" fill="white"/>
<path d="M229.164 90.3057C240.056 87.0039 224.591 79.5225 207.532 78.7737C167.248 77.0061 157.397 67.9611 128.852 64.8285C119.956 63.8523 126.087 77.0919 146.677 82.9245C172.752 90.3111 217.937 86.0019 206.888 90.6405C195.839 95.2785 207.559 109.121 230.801 104.904C248.777 101.642 274.147 116.261 265.047 103.604C259.293 95.6001 245.776 98.5185 239.531 97.9419C233.288 97.3653 213.056 95.1891 229.164 90.3057Z" fill="#F5F5F5"/>
<path d="M217.571 117.369C213.755 118.871 204.179 115.608 198.094 115.718C192.01 115.829 182.576 118.112 177.653 113.212C172.731 108.311 198.211 111.147 203.455 111.617C213.18 112.487 223.161 115.169 217.571 117.369Z" fill="#FAFAFA"/>
<path d="M238.006 47.4532C240.096 45.394 245.851 49.21 249.349 48.8446C252.847 48.4798 258.117 45.214 261.31 51.2938C264.503 57.3742 249.614 54.6886 246.559 54.2824C240.892 53.5288 234.945 50.4694 238.006 47.4532Z" fill="#F5F5F5"/>
<path d="M41.3634 89.0353C43.4532 86.9761 49.2084 90.7921 52.7064 90.4273C56.2044 90.0619 61.4742 86.7967 64.6674 92.8771C67.8606 98.9569 52.9716 96.2719 49.9158 95.8657C44.2488 95.1109 38.3022 92.0515 41.3634 89.0353Z" fill="#F5F5F5"/>
<path d="M59.3581 46.3035C64.8169 50.5359 80.1583 47.1453 89.3953 49.3425C98.6329 51.5391 112.461 59.1555 121.101 50.9895C129.74 42.8235 90.2869 40.1961 82.1929 39.4275C67.1839 38.0019 51.3625 40.1037 59.3581 46.3035Z" fill="#FAFAFA"/>
<path d="M117.902 156.533C125.668 145.515 113.159 68.5324 96.3331 63.5326C79.5067 58.5328 78.5143 145.059 84.6097 155.333C91.4929 166.933 109.444 168.533 117.902 156.533Z" fill="#EBEBEB"/>
<path d="M102.254 134.398C103.633 134.398 104.79 135.45 104.913 136.824C107.676 167.635 107.602 198.637 104.69 229.438C102.907 229.438 101.123 229.438 99.3396 229.438C102.236 198.796 102.325 167.955 99.6054 137.301C99.4674 135.741 100.688 134.398 102.254 134.398Z" fill="#E0E0E0"/>
<path d="M241.249 188.713C236.911 182.559 243.898 139.558 253.297 136.765C262.696 133.972 263.251 182.305 259.846 188.043C256.002 194.523 245.974 195.416 241.249 188.713Z" fill="#EBEBEB"/>
<path d="M255.76 172.183C255.623 172.133 255.492 172.057 255.375 171.955C254.862 171.51 254.808 170.733 255.254 170.22L257.51 167.625C257.956 167.112 258.731 167.056 259.246 167.503C259.758 167.949 259.813 168.726 259.367 169.239L257.111 171.834C256.767 172.23 256.225 172.353 255.76 172.183Z" fill="white"/>
<path d="M247.339 159.628C246.849 159.596 246.405 159.269 246.247 158.773L245.067 155.069C244.86 154.422 245.218 153.729 245.865 153.523C246.511 153.317 247.204 153.674 247.411 154.322L248.591 158.026C248.797 158.674 248.44 159.366 247.792 159.572C247.642 159.62 247.488 159.637 247.339 159.628Z" fill="white"/>
<path d="M249.99 176.35C249.22 176.35 248.574 176.937 248.505 177.704C246.961 194.915 247.003 212.232 248.629 229.437C249.625 229.437 250.622 229.437 251.618 229.437C250 212.321 249.951 195.094 251.47 177.97C251.547 177.1 250.865 176.35 249.99 176.35Z" fill="#E0E0E0"/>
<path d="M95.9485 130.549C95.6827 130.549 95.4121 130.498 95.1511 130.39L84.7807 126.129C83.7079 125.688 83.1955 124.461 83.6365 123.388C84.0769 122.316 85.3045 121.803 86.3767 122.244L96.7471 126.505C97.8199 126.946 98.3323 128.173 97.8913 129.246C97.5583 130.058 96.7747 130.549 95.9485 130.549Z" fill="white"/>
<path d="M109.717 120.275C109.468 120.275 109.214 120.23 108.968 120.136C107.884 119.722 107.342 118.508 107.756 117.424L109.853 111.942C110.268 110.86 111.478 110.316 112.565 110.731C113.648 111.146 114.191 112.36 113.776 113.443L111.679 118.925C111.359 119.762 110.563 120.275 109.717 120.275Z" fill="white"/>
<path d="M94.1316 106.339C93.2928 106.339 92.5002 105.833 92.1756 105.004L89.7558 98.8252C89.3328 97.7452 89.8656 96.5272 90.945 96.1042C92.022 95.6812 93.2424 96.2134 93.666 97.294L96.0858 103.473C96.5088 104.553 95.976 105.771 94.8966 106.194C94.6452 106.292 94.3866 106.339 94.1316 106.339Z" fill="white"/>
<path d="M150 256.537C214.249 256.537 266.333 253.495 266.333 249.743C266.333 245.991 214.249 242.949 150 242.949C85.7507 242.949 33.6665 245.991 33.6665 249.743C33.6665 253.495 85.7507 256.537 150 256.537Z" fill="#F5F5F5"/>
<path d="M97.8698 250.066C97.8086 250.066 97.7462 250.049 97.691 250.012C91.5842 245.94 93.8378 241.307 96.4478 235.943C99.8366 228.978 104.055 220.309 92.8352 208.519C83.2982 198.499 78.6668 188.897 79.793 181.483C80.399 177.491 82.6574 174.301 86.324 172.256C86.4812 172.169 86.6774 172.225 86.7638 172.381C86.8514 172.537 86.7956 172.734 86.639 172.821C83.1536 174.765 81.0074 177.793 80.4326 181.579C79.3376 188.791 83.9084 198.2 93.3038 208.073C104.834 220.187 100.507 229.081 97.0304 236.227C94.451 241.528 92.414 245.714 98.0498 249.473C98.1986 249.572 98.2388 249.773 98.1398 249.922C98.0774 250.015 97.9748 250.066 97.8698 250.066Z" fill="#25262B"/>
<path d="M84.2983 174.038C88.3033 169.597 86.7811 163.011 85.3879 159.516C82.2505 160.803 79.6957 169.084 84.2983 174.038Z" fill="#25262B"/>
<path d="M84.2965 197.037C79.1023 187.186 69.4489 185.964 64.0105 185.506C67.2289 191.995 75.7051 200.067 84.2965 197.037Z" fill="#25262B"/>
<path d="M94.8804 239.715C101.771 228.398 89.8632 220.226 83.5998 211.965C81.1866 220.305 82.9656 234.65 94.8804 239.715Z" fill="#25262B"/>
<path d="M93.7986 209.084C85.4364 199.29 87.3481 192.195 89.6185 187.607C94.1185 193.411 100.913 203.701 93.7986 209.084Z" fill="#25262B"/>
<path d="M81.824 176.69C84.2588 173.797 88.478 174.224 90.764 174.82C90.2186 176.908 85.2782 179.197 81.824 176.69Z" fill="#25262B"/>
<path d="M99.8491 228.614C100.767 221.141 104.017 221.726 106.564 218.379C107.933 223.331 104.68 227.868 99.8491 228.614Z" fill="#25262B"/>
<path d="M198.042 89.057C193.996 89.9906 188.254 92.2652 183.162 94.2992C183.247 93.9188 183.274 93.5246 183.293 93.1376C183.031 93.6098 182.768 94.082 182.506 94.5614C182.441 94.5878 182.375 94.6076 182.316 94.64C182.336 94.1216 182.303 93.6098 182.211 93.1046C182.074 93.7802 181.778 94.4234 181.352 94.9676C181.332 94.994 181.306 95.0264 181.286 95.0528C180.938 95.1902 180.598 95.3282 180.263 95.4662C180.355 94.4294 180.394 93.3932 180.243 92.3762C180.151 93.3542 179.993 94.3184 179.77 95.276C179.737 95.4206 179.705 95.5652 179.665 95.7092C179.206 95.8994 178.766 96.0764 178.34 96.26C178.248 95.8928 178.15 95.5256 178.058 95.1578C177.901 95.63 177.743 96.1022 177.586 96.5684C177.395 96.647 177.212 96.7256 177.034 96.7982C176.956 96.2474 176.831 95.7026 176.66 95.171C176.588 95.8142 176.509 96.47 176.332 97.0934C176.181 97.1588 176.03 97.2182 175.886 97.2836C175.866 96.2996 175.742 95.3222 175.538 94.3574C175.447 95.1056 175.355 95.8466 175.27 96.5882C175.23 96.923 175.191 97.2572 175.145 97.592C173.17 98.4314 171.937 98.9762 171.937 98.9762C171.937 98.9762 171.793 91.838 171.937 81.0128C172.087 70.1936 174.233 61.3304 178.648 56.987C183.09 52.6178 192.498 51.9614 196.946 55.8254C201.388 59.69 202.645 68.6774 200.955 77.4764C199.981 82.5458 209.372 86.4416 198.042 89.057Z" fill="#25262B"/>
<path d="M158.516 138.112L158.937 136.83C159.271 135.813 160.041 134.997 161.038 134.604L166.591 132.418L169.367 133.773C168.622 136.802 165.207 139.863 165.207 139.863L164.337 140.816C163.562 141.665 162.266 141.911 161.359 141.381L159.271 140.162C158.549 139.742 158.249 138.926 158.516 138.112Z" fill="#E1948D"/>
<path d="M189.851 102.933C189.745 103.943 189.633 104.832 189.49 105.765C189.358 106.689 189.191 107.604 189.029 108.519C188.685 110.347 188.299 112.167 187.838 113.976C187.395 115.787 186.866 117.588 186.283 119.378C185.713 121.172 185.024 122.948 184.286 124.713L184.184 124.958C184.04 125.301 183.831 125.609 183.588 125.862C182.23 127.264 180.895 128.262 179.543 129.267C178.198 130.26 176.822 131.147 175.445 132.01C174.06 132.861 172.666 133.676 171.246 134.442C169.821 135.208 168.405 135.943 166.908 136.617C165.868 137.085 164.645 136.623 164.177 135.583C163.799 134.744 164.028 133.785 164.678 133.2L164.705 133.176C165.862 132.138 167.066 131.109 168.242 130.085C169.424 129.062 170.602 128.045 171.756 127.019C172.922 126.009 174.05 124.969 175.136 123.947C176.206 122.931 177.271 121.86 178.026 120.911L177.328 122.06C177.836 120.457 178.304 118.831 178.727 117.173C179.136 115.512 179.529 113.841 179.874 112.148C180.213 110.456 180.548 108.757 180.839 107.05L181.267 104.491L181.656 101.99L181.675 101.872C182.024 99.622 184.132 98.0806 186.382 98.4304C188.561 98.7676 190.073 100.764 189.851 102.933Z" fill="#E1948D"/>
<path d="M190.028 91.375C178.785 92.7526 176.865 114.149 177.885 118.475C179.471 122.178 186.364 120.257 186.364 120.257C186.364 120.257 197.289 104.031 190.028 91.375Z" fill="#25262B"/>
<path d="M187.501 119.633C187.102 120.574 186.648 121.167 186.494 121.354C186.458 121.397 186.418 121.427 186.366 121.449C185.755 121.703 181.445 123.353 177.826 120.901C177.766 120.86 177.716 120.802 177.688 120.735C177.266 119.758 177.221 118.505 177.233 117.828C177.238 117.587 177.475 117.425 177.701 117.505C179.068 117.993 183.345 119.38 187.15 119.14C187.416 119.123 187.604 119.388 187.501 119.633Z" fill="white"/>
<path d="M233.878 249.736C239.359 249.736 238.957 249.652 242.029 249.548C244.659 249.454 245.314 249.784 247.43 249.736C249.197 249.698 249.004 248.003 248.311 246.054C247.964 245.075 247.45 243.878 246.954 242.297H238.629C237.661 244.453 235.533 246.073 232.475 246.488C229.557 246.883 231.692 249.736 233.878 249.736Z" fill="#25262B"/>
<path d="M188.612 249.736C195.579 249.736 196.244 246.727 198.835 245.148C201.053 243.79 201.937 244.167 204.229 242.875C205.747 242.02 205.073 240.146 203.854 239.144C202.906 238.363 201.766 237.277 200.896 236.035L194.107 239.049C193.736 241.789 192.453 246.392 188.356 246.684C185.427 246.901 186.456 249.736 188.612 249.736Z" fill="#25262B"/>
<path d="M189.983 133.9C189.983 133.9 176.764 167.499 175.034 184.16C174.983 197.949 194.106 239.051 194.106 239.051C194.699 240.08 200.192 237.126 200.895 236.037C193.851 218.84 197.554 197.325 191.2 184.702C204.823 165.33 215.387 129.48 215.387 129.48L189.983 133.9Z" fill="#228BE6"/>
<path opacity="0.2" d="M187.72 142.259C187.651 142.259 187.589 142.211 187.573 142.142C187.555 142.061 187.606 141.98 187.686 141.962C190.496 141.324 191.782 139.311 191.795 139.291C191.84 139.22 191.933 139.2 192.002 139.244C192.073 139.287 192.094 139.38 192.05 139.45C191.995 139.537 190.684 141.589 187.753 142.255C187.742 142.257 187.731 142.259 187.72 142.259Z" fill="white"/>
<path opacity="0.2" d="M202.356 149.399C199.415 155.354 198.953 164.234 199.19 171.034C203.015 163.436 206.367 155.269 209.012 148.202C209.001 148.192 208.989 148.182 208.979 148.172C206.931 146.276 203.591 146.897 202.356 149.399Z" fill="black"/>
<path d="M197.601 132.575C197.601 132.575 201.106 163.965 208.076 185.385C211.552 196.067 231.413 220.322 238.628 242.298C239.969 243.044 244.484 243.089 246.953 242.298C246.953 242.298 235.871 193.992 223.939 183.828C223.901 157.723 224.836 145.127 219.131 128.83L197.601 132.575Z" fill="#228BE6"/>
<path opacity="0.2" d="M243.9 239.415C243.828 239.415 243.764 239.363 243.752 239.29C238.815 210.125 221.155 184.712 220.977 184.458C220.957 184.43 220.948 184.394 220.951 184.359C220.954 184.325 221.254 180.734 221.565 167.497C221.858 155.018 220.705 141.473 220.561 139.841C219.623 139.998 214.9 140.638 211.327 138.295C211.258 138.249 211.238 138.156 211.284 138.087C211.33 138.018 211.423 137.999 211.492 138.044C215.351 140.575 220.612 139.528 220.665 139.517C220.706 139.509 220.751 139.518 220.784 139.544C220.819 139.569 220.841 139.608 220.845 139.65C220.858 139.795 222.177 154.248 221.865 167.504C221.574 179.887 221.292 183.837 221.253 184.331C222.097 185.552 239.197 210.588 244.047 239.24C244.061 239.321 244.006 239.399 243.925 239.412C243.916 239.414 243.908 239.415 243.9 239.415Z" fill="white"/>
<path d="M237.048 239.176C237.242 239.931 237.553 241.249 237.646 242.254C237.679 242.616 238.021 242.952 238.402 243.011C241.59 243.499 245.796 242.792 247.123 242.54C247.378 242.492 247.52 242.279 247.484 242.011L247.109 239.131C247.057 238.738 246.647 238.384 246.25 238.391L237.498 238.561C237.159 238.567 236.961 238.834 237.048 239.176Z" fill="#228BE6"/>
<path opacity="0.2" d="M237.048 239.176C237.242 239.931 237.553 241.249 237.646 242.254C237.679 242.616 238.021 242.952 238.402 243.011C241.59 243.499 245.796 242.792 247.123 242.54C247.378 242.492 247.52 242.279 247.484 242.011L247.109 239.131C247.057 238.738 246.647 238.384 246.25 238.391L237.498 238.561C237.159 238.567 236.961 238.834 237.048 239.176Z" fill="black"/>
<path d="M192.148 236.357C192.419 237.115 192.895 238.468 193.211 239.485C193.315 239.821 193.665 240.002 194.003 239.905C196.537 239.176 200.249 237.169 201.461 236.495C201.701 236.361 201.826 236.09 201.776 235.82L201.237 232.911C201.163 232.514 200.746 232.283 200.371 232.432L192.516 235.551C192.195 235.679 192.031 236.033 192.148 236.357Z" fill="#228BE6"/>
<path opacity="0.2" d="M192.148 236.357C192.419 237.115 192.895 238.468 193.211 239.485C193.315 239.821 193.665 240.002 194.003 239.905C196.537 239.176 200.249 237.169 201.461 236.495C201.701 236.361 201.826 236.09 201.776 235.82L201.237 232.911C201.163 232.514 200.746 232.283 200.371 232.432L192.516 235.551C192.195 235.679 192.031 236.033 192.148 236.357Z" fill="black"/>
<path d="M189.826 132.648C189.904 133.038 189.497 134.71 188.888 136.194C189.967 136.925 193.667 137.736 198.385 137.94C198.826 137.214 199.106 135.303 199.45 134.522C199.637 135.647 200.84 137.521 201.553 137.979C204.064 137.935 206.739 137.706 209.386 137.209C218.54 135.49 220.696 132.647 220.696 132.647C220.696 132.647 218.947 127.366 218.447 125.43C213.728 125.805 190.076 126.493 189.826 132.648Z" fill="white"/>
<path d="M181.273 106.072C182.149 108.847 183.251 112.362 185.924 118.783C189.489 127.962 188.65 129.983 189.575 133.752C191.644 134.615 195.168 135.363 197.6 135.298C197.996 134.41 198.478 133.573 199.23 132.617C199.957 133.106 202.198 134.502 203.489 134.586C209.322 133.69 216.844 131.427 219.487 128.628C217.472 120.519 216.747 111.672 215.57 92.2178C215.298 87.707 211.327 84.6728 207.04 85.7006C205.894 85.9754 204.688 86.2922 203.463 86.6552C198.701 88.0664 194.81 89.2592 190.782 91.091C189.447 91.6982 188.08 92.3708 186.78 93.0386C182.092 95.4458 179.704 101.098 181.273 106.072Z" fill="#25262B"/>
<path d="M231.165 138.081L230.261 137.079C229.544 136.284 229.218 135.211 229.372 134.151L230.231 128.245L232.786 126.508C235.045 128.658 236.007 133.143 236.007 133.143L236.402 134.371C236.754 135.465 236.324 136.713 235.415 137.237L233.32 138.445C232.596 138.861 231.739 138.717 231.165 138.081Z" fill="#E1948D"/>
<path d="M218.588 91.3935C219.361 92.1123 220.01 92.7507 220.684 93.4467C221.354 94.1271 221.993 94.8315 222.634 95.5335C223.902 96.9495 225.129 98.4021 226.295 99.9099C227.474 101.405 228.59 102.96 229.652 104.56C230.734 106.144 231.706 107.823 232.649 109.519L232.769 109.735C232.857 109.893 232.928 110.07 232.978 110.236C233.521 112.111 233.723 113.765 233.925 115.438C234.12 117.099 234.207 118.734 234.273 120.356C234.324 121.981 234.338 123.596 234.299 125.209C234.257 126.826 234.192 128.421 234.034 130.054C233.925 131.19 232.916 132.021 231.781 131.911C230.864 131.823 230.146 131.148 229.961 130.294L229.954 130.259C229.626 128.739 229.331 127.184 229.026 125.655C228.724 124.12 228.425 122.592 228.108 121.081C227.81 119.568 227.467 118.072 227.119 116.623C226.768 115.189 226.367 113.734 225.917 112.606L226.246 113.323C225.286 111.903 224.296 110.499 223.238 109.122C222.179 107.75 221.088 106.393 219.954 105.062C218.816 103.737 217.666 102.414 216.477 101.129L214.686 99.2145C214.094 98.5953 213.461 97.9329 212.919 97.3857L212.851 97.3167C211.248 95.6991 211.259 93.0885 212.877 91.4847C214.452 89.9235 216.976 89.8995 218.588 91.3935Z" fill="#E1948D"/>
<path d="M206.53 85.8242C217.134 81.8438 228.736 99.923 229.834 104.231C230.141 108.247 223.141 109.734 223.141 109.734C223.141 109.734 205.948 100.403 206.53 85.8242Z" fill="#25262B"/>
<path d="M192.92 100.04C192.791 100.04 192.665 99.9736 192.596 99.8548C192.491 99.676 192.551 99.4462 192.73 99.3418C193.604 98.83 197.256 95.2612 198.762 92.2672C198.855 92.083 199.076 92.0068 199.266 92.101C199.451 92.194 199.525 92.4196 199.432 92.6044C197.838 95.7742 194.06 99.433 193.109 99.9892C193.049 100.023 192.984 100.04 192.92 100.04Z" fill="#228BE6"/>
<path d="M191.627 99.8531C191.564 99.8531 191.498 99.8362 191.439 99.802C190.313 99.1432 188.318 96.4727 188.577 93.0017C188.592 92.7953 188.758 92.6393 188.979 92.6555C189.185 92.6711 189.34 92.8511 189.325 93.0575C189.075 96.4085 191.093 98.7311 191.817 99.1547C191.996 99.2591 192.056 99.4889 191.951 99.6677C191.882 99.7865 191.756 99.8531 191.627 99.8531Z" fill="#228BE6"/>
<path d="M196.603 72.9297C197.303 77.3529 199.163 85.1037 202.766 86.8989C202.766 86.8989 198.698 87.6705 192.268 95.6145C188.701 93.0381 190.085 91.3347 190.085 91.3347C194.336 88.6287 193.387 85.7655 191.476 82.9413L196.603 72.9297Z" fill="#E1948D"/>
<path d="M193.636 93.9899C196.473 93.4295 198.747 97.2149 198.747 97.2149C198.747 97.2149 203.632 90.3539 204.557 86.3963C203.417 86.2283 201.66 85.7207 201.66 85.7207C201.66 85.7207 194.668 91.8779 193.636 93.9899Z" fill="white"/>
<path d="M190.916 94.452C190.916 94.452 188.801 95.898 189.104 99.4776C186.404 93.7428 188.83 91.7586 188.83 91.7586C188.83 91.7586 189.466 90.8574 191.15 90.5508C189.402 92.4312 190.916 94.452 190.916 94.452Z" fill="white"/>
<path opacity="0.2" d="M194.514 77.0137L191.479 82.9363C191.933 83.6035 192.351 84.3001 192.669 85.0159C194.259 84.0121 195.879 81.0721 195.4 79.1737C195.161 78.2269 194.81 77.3719 194.514 77.0137Z" fill="black"/>
<path d="M180.8 79.1764H179.408C179.359 79.1764 179.312 79.1542 179.281 79.1152C179.249 79.0768 179.237 79.0258 179.248 78.9772L179.944 75.7696C179.96 75.694 180.027 75.6406 180.104 75.6406C180.182 75.6406 180.248 75.6946 180.265 75.7696L180.961 78.9772C180.972 79.0258 180.959 79.0762 180.928 79.1152C180.896 79.1536 180.85 79.1764 180.8 79.1764ZM179.612 78.8482H180.597L180.105 76.5784L179.612 78.8482Z" fill="white"/>
<path d="M196.426 63.5032C198.082 70.4092 198.926 73.2898 196.659 77.9728C193.25 85.0174 184.649 85.9504 181.023 79.7776C177.759 74.2222 175.599 63.862 181.221 58.819C186.76 53.851 194.77 56.5972 196.426 63.5032Z" fill="#E1948D"/>
<path d="M177.073 66.4668C183.428 65.2278 187.285 59.0676 190.278 59.25C189.821 63.9156 193.482 69.1914 197.089 69.3162C201.966 69.4848 197.447 57.5004 194.173 55.605C190.711 53.6004 175.949 53.4546 177.073 66.4668Z" fill="#25262B"/>
<path d="M194.123 69.5818C193.617 69.5818 193.114 69.4078 192.629 69.0604C190.427 67.4836 189.097 62.5828 189.943 59.1652C189.987 58.99 190.159 58.882 190.34 58.9258C190.516 58.9696 190.624 59.1472 190.579 59.323C189.802 62.4628 191.029 67.108 193.01 68.527C193.714 69.031 194.435 69.0526 195.155 68.5912C195.307 68.4928 195.51 68.5378 195.608 68.6902C195.706 68.8426 195.662 69.0454 195.509 69.1432C195.053 69.4354 194.587 69.5818 194.123 69.5818Z" fill="#25262B"/>
<path d="M186.811 69.0827C186.974 69.6563 186.818 70.2257 186.462 70.3553C186.106 70.4843 185.684 70.1243 185.519 69.5507C185.356 68.9771 185.512 68.4077 185.868 68.2781C186.225 68.1491 186.647 68.5091 186.811 69.0827Z" fill="#25262B"/>
<path d="M180.133 71.614C180.296 72.1876 180.14 72.757 179.784 72.8866C179.428 73.0156 179.006 72.6556 178.841 72.082C178.678 71.5084 178.834 70.939 179.19 70.8094C179.547 70.6804 179.969 71.0404 180.133 71.614Z" fill="#25262B"/>
<path d="M179.357 70.7832L177.934 70.8606C177.934 70.8606 178.913 71.6934 179.357 70.7832Z" fill="#25262B"/>
<path d="M182.272 71.877C182.272 71.877 182.053 74.6814 181.375 76.242C182.297 76.6878 183.428 75.9216 183.428 75.9216L182.272 71.877Z" fill="#C92A2A"/>
<path d="M186.954 76.7808C186.664 76.8888 186.349 76.977 186.006 77.0394C185.914 77.0562 185.83 76.992 185.819 76.8954C185.809 76.8 185.873 76.7094 185.968 76.6908C188.471 76.2408 189.443 74.2098 189.452 74.1894C189.494 74.0994 189.595 74.058 189.679 74.0964C189.762 74.1348 189.796 74.2386 189.754 74.328C189.717 74.4072 188.936 76.0428 186.954 76.7808Z" fill="#25262B"/>
<path d="M199.846 70.0595C199.507 71.6231 198.589 72.7679 197.614 73.3121C196.147 74.1311 195.003 72.5009 195.067 70.5653C195.125 68.8229 195.958 66.2969 197.596 66.2969C199.209 66.2963 200.233 68.2715 199.846 70.0595Z" fill="#E1948D"/>
<path d="M183.235 66.5832C183.283 66.5058 183.359 66.4494 183.453 66.4338C184.918 66.1896 185.388 65.0022 185.393 64.9884C185.462 64.812 185.657 64.7298 185.829 64.8102C186.001 64.8912 186.084 65.1012 186.016 65.2812C185.991 65.3436 185.402 66.834 183.584 67.137C183.403 67.167 183.227 67.0338 183.19 66.84C183.173 66.7464 183.191 66.6558 183.235 66.5832Z" fill="#25262B"/>
<path d="M177.196 69.2897C177.117 69.3239 177.028 69.3281 176.945 69.2945C176.776 69.2243 176.7 69.0203 176.776 68.8379C177.539 67.0109 179.075 66.6473 179.14 66.6329C179.324 66.5921 179.497 66.7127 179.525 66.9041C179.554 67.0949 179.429 67.2827 179.245 67.3247C179.185 67.3379 177.998 67.6379 177.391 69.0911C177.352 69.1841 177.28 69.2537 177.196 69.2897Z" fill="#25262B"/>
<path d="M186.035 68.2539L184.612 68.3313C184.612 68.3313 185.591 69.1635 186.035 68.2539Z" fill="#25262B"/>
<path d="M191.617 97.3302C192.348 97.1988 192.897 97.173 193.254 97.1784C193.541 97.1826 193.786 97.3692 193.866 97.644C194.042 98.2494 194.364 99.336 194.554 99.861C194.825 100.611 192.7 102.152 192.7 102.152C192.7 102.152 190.951 101.319 190.909 100.215C190.88 99.468 191 98.4546 191.081 97.8768C191.12 97.5972 191.339 97.3806 191.617 97.3302Z" fill="#228BE6"/>
<path d="M196.008 119.295C195.866 115.837 193.585 100.027 193.585 100.027L191.899 100.236C191.774 102.485 190.576 116.004 190.576 119.586C190.576 123.169 193.636 127.168 193.636 127.168C193.636 127.168 196.149 122.753 196.008 119.295Z" fill="#228BE6"/>
<path d="M221.845 109.707C222.634 110.357 223.311 110.672 223.534 110.767C223.586 110.788 223.636 110.797 223.691 110.792C224.351 110.735 228.935 110.203 231.008 106.354C231.042 106.29 231.059 106.216 231.054 106.144C230.975 105.082 230.436 103.951 230.112 103.357C229.997 103.145 229.712 103.111 229.549 103.287C228.562 104.352 225.412 107.561 221.927 109.108C221.685 109.216 221.64 109.538 221.845 109.707Z" fill="white"/>
<path d="M175.206 148.991L172.258 154.997C171.671 156.193 170.2 156.649 169.04 155.995L131.066 134.591L134.411 127.775L174.087 145.861C175.275 146.403 175.781 147.818 175.206 148.991Z" fill="#228BE6"/>
<path opacity="0.4" d="M175.206 148.991L172.258 154.997C171.671 156.193 170.2 156.649 169.04 155.995L131.066 134.591L134.411 127.775L174.087 145.861C175.275 146.403 175.781 147.818 175.206 148.991Z" fill="black"/>
<path d="M134.428 103.416C134.384 103.299 134.342 103.181 134.296 103.065C134.134 102.648 133.963 102.233 133.782 101.822C133.757 101.766 133.73 101.712 133.705 101.656C133.546 101.299 133.378 100.944 133.205 100.592C133.143 100.467 133.079 100.343 133.016 100.218C132.864 99.919 132.707 99.622 132.545 99.3262C132.483 99.2134 132.422 99.0994 132.359 98.9872C132.136 98.5924 131.906 98.2 131.666 97.813C131.638 97.768 131.608 97.7236 131.579 97.6786C131.364 97.3354 131.141 96.9958 130.912 96.6598C130.832 96.5434 130.751 96.4282 130.67 96.313C130.475 96.0334 130.275 95.7574 130.07 95.4832C129.991 95.3776 129.913 95.2708 129.833 95.1658C129.553 94.7992 129.266 94.4368 128.968 94.0804C128.939 94.0462 128.909 94.0126 128.88 93.9784C128.609 93.6562 128.33 93.3388 128.045 93.025C127.949 92.9194 127.852 92.8162 127.756 92.7118C127.519 92.458 127.279 92.2072 127.033 91.96C126.937 91.8628 126.842 91.7656 126.745 91.6696C126.409 91.339 126.068 91.0126 125.716 90.694C125.692 90.6724 125.668 90.652 125.644 90.6304C125.314 90.3334 124.977 90.043 124.634 89.7574C124.523 89.665 124.411 89.5744 124.298 89.4832C124.023 89.26 123.744 89.0404 123.461 88.8244C123.349 88.7386 123.236 88.6522 123.123 88.5676C122.735 88.2796 122.342 87.9964 121.939 87.7228C121.924 87.7126 121.908 87.703 121.893 87.6928C121.505 87.43 121.108 87.1756 120.706 86.9266C120.58 86.8486 120.452 86.773 120.325 86.6962C120.014 86.509 119.7 86.3266 119.381 86.1478C119.252 86.0752 119.123 86.002 118.993 85.9312C118.555 85.6936 118.113 85.4608 117.661 85.2388C101.621 77.3668 82.7159 82.9984 75.4469 97.81L73.0781 102.638C80.3471 87.826 99.2519 82.1944 115.292 90.0664C115.744 90.2884 116.186 90.5206 116.624 90.7588C116.755 90.8296 116.883 90.9034 117.012 90.9754C117.331 91.1542 117.645 91.3366 117.956 91.5238C118.083 91.6006 118.21 91.6762 118.336 91.7542C118.738 92.0032 119.135 92.2576 119.524 92.5204C119.539 92.5306 119.554 92.5402 119.57 92.5504C119.972 92.824 120.365 93.1072 120.754 93.3952C120.868 93.4798 120.979 93.5662 121.092 93.652C121.375 93.8674 121.653 94.0864 121.928 94.309C122.041 94.4008 122.155 94.492 122.266 94.585C122.609 94.87 122.945 95.1604 123.275 95.4568C123.299 95.4784 123.324 95.4988 123.348 95.5204C123.7 95.839 124.04 96.1654 124.376 96.496C124.474 96.592 124.568 96.6898 124.665 96.7864C124.91 97.0336 125.151 97.2844 125.387 97.5382C125.485 97.6426 125.582 97.7464 125.677 97.8514C125.962 98.1652 126.241 98.4826 126.512 98.8048C126.541 98.839 126.571 98.8726 126.6 98.9068C126.897 99.2632 127.183 99.625 127.464 99.9916C127.545 100.097 127.623 100.205 127.703 100.311C127.907 100.584 128.107 100.86 128.302 101.139C128.383 101.255 128.464 101.37 128.543 101.486C128.772 101.823 128.995 102.162 129.211 102.505C129.239 102.55 129.269 102.594 129.297 102.639C129.538 103.026 129.767 103.418 129.99 103.814C130.054 103.926 130.114 104.039 130.176 104.153C130.339 104.448 130.496 104.745 130.648 105.044C130.712 105.169 130.775 105.293 130.837 105.419C131.01 105.771 131.177 106.125 131.337 106.482C131.362 106.538 131.389 106.593 131.414 106.649C131.595 107.06 131.765 107.475 131.928 107.892C131.974 108.008 132.016 108.126 132.06 108.243C132.178 108.555 132.29 108.869 132.398 109.184C132.443 109.316 132.488 109.448 132.531 109.58C132.648 109.939 132.759 110.3 132.863 110.663C132.882 110.73 132.904 110.798 132.923 110.867C133.042 111.294 133.15 111.723 133.25 112.154C133.278 112.274 133.303 112.394 133.33 112.515C133.4 112.838 133.466 113.161 133.526 113.486C133.552 113.622 133.577 113.759 133.6 113.897C133.662 114.26 133.717 114.625 133.766 114.99C133.776 115.067 133.789 115.142 133.798 115.218C133.853 115.656 133.896 116.094 133.931 116.534C133.94 116.652 133.946 116.771 133.954 116.891C133.976 117.221 133.993 117.552 134.004 117.884C134.008 118.023 134.012 118.162 134.015 118.301C134.021 118.662 134.021 119.024 134.014 119.387C134.012 119.47 134.013 119.554 134.011 119.637C134.006 119.773 133.995 119.908 133.989 120.044C133.972 120.447 133.949 120.851 133.915 121.253C133.898 121.446 133.874 121.638 133.853 121.83C133.817 122.173 133.777 122.516 133.727 122.858C133.697 123.066 133.663 123.273 133.628 123.481C133.573 123.81 133.513 124.138 133.445 124.466C133.403 124.674 133.359 124.883 133.311 125.091C133.235 125.424 133.15 125.757 133.06 126.089C133.004 126.301 132.95 126.513 132.888 126.724C132.842 126.88 132.793 127.035 132.744 127.19C132.653 127.482 132.556 127.774 132.455 128.065C132.399 128.225 132.342 128.385 132.283 128.544C132.172 128.845 132.053 129.144 131.93 129.443C131.873 129.581 131.819 129.72 131.76 129.858C131.575 130.29 131.38 130.721 131.171 131.147L133.54 126.319C133.749 125.892 133.943 125.463 134.129 125.031C134.188 124.893 134.242 124.754 134.299 124.616C134.422 124.317 134.54 124.018 134.652 123.717C134.711 123.558 134.768 123.398 134.824 123.238C134.925 122.948 135.022 122.657 135.113 122.364C135.161 122.208 135.211 122.053 135.257 121.897C135.279 121.821 135.305 121.746 135.326 121.671C135.365 121.535 135.392 121.398 135.428 121.263C135.518 120.93 135.603 120.598 135.679 120.264C135.727 120.056 135.77 119.848 135.813 119.64C135.88 119.312 135.941 118.983 135.996 118.655C136.031 118.447 136.065 118.24 136.095 118.032C136.145 117.69 136.184 117.347 136.221 117.003C136.242 116.811 136.265 116.619 136.282 116.427C136.316 116.024 136.339 115.62 136.356 115.217C136.361 115.104 136.373 114.992 136.377 114.88C136.378 114.857 136.377 114.834 136.378 114.811C136.38 114.728 136.379 114.644 136.381 114.56C136.388 114.198 136.388 113.836 136.382 113.474C136.379 113.335 136.375 113.197 136.37 113.058C136.36 112.727 136.343 112.395 136.321 112.064C136.313 111.945 136.307 111.827 136.297 111.707C136.262 111.268 136.219 110.829 136.164 110.392C136.154 110.316 136.142 110.24 136.132 110.164C136.083 109.799 136.028 109.434 135.966 109.071C135.943 108.933 135.917 108.797 135.892 108.66C135.832 108.335 135.766 108.011 135.695 107.687C135.668 107.568 135.644 107.448 135.616 107.328C135.516 106.897 135.409 106.467 135.289 106.04C135.27 105.972 135.248 105.905 135.229 105.836C135.125 105.474 135.015 105.113 134.897 104.753C134.855 104.621 134.809 104.489 134.764 104.357C134.659 104.041 134.546 103.728 134.428 103.416Z" fill="#228BE6"/>
<path opacity="0.4" d="M134.428 103.416C134.384 103.299 134.342 103.181 134.296 103.065C134.134 102.648 133.963 102.233 133.782 101.822C133.757 101.766 133.73 101.712 133.705 101.656C133.546 101.299 133.378 100.944 133.205 100.592C133.143 100.467 133.079 100.343 133.016 100.218C132.864 99.919 132.707 99.622 132.545 99.3262C132.483 99.2134 132.422 99.0994 132.359 98.9872C132.136 98.5924 131.906 98.2 131.666 97.813C131.638 97.768 131.608 97.7236 131.579 97.6786C131.364 97.3354 131.141 96.9958 130.912 96.6598C130.832 96.5434 130.751 96.4282 130.67 96.313C130.475 96.0334 130.275 95.7574 130.07 95.4832C129.991 95.3776 129.913 95.2708 129.833 95.1658C129.553 94.7992 129.266 94.4368 128.968 94.0804C128.939 94.0462 128.909 94.0126 128.88 93.9784C128.609 93.6562 128.33 93.3388 128.045 93.025C127.949 92.9194 127.852 92.8162 127.756 92.7118C127.519 92.458 127.279 92.2072 127.033 91.96C126.937 91.8628 126.842 91.7656 126.745 91.6696C126.409 91.339 126.068 91.0126 125.716 90.694C125.692 90.6724 125.668 90.652 125.644 90.6304C125.314 90.3334 124.977 90.043 124.634 89.7574C124.523 89.665 124.411 89.5744 124.298 89.4832C124.023 89.26 123.744 89.0404 123.461 88.8244C123.349 88.7386 123.236 88.6522 123.123 88.5676C122.735 88.2796 122.342 87.9964 121.939 87.7228C121.924 87.7126 121.908 87.703 121.893 87.6928C121.505 87.43 121.108 87.1756 120.706 86.9266C120.58 86.8486 120.452 86.773 120.325 86.6962C120.014 86.509 119.7 86.3266 119.381 86.1478C119.252 86.0752 119.123 86.002 118.993 85.9312C118.555 85.6936 118.113 85.4608 117.661 85.2388C101.621 77.3668 82.7159 82.9984 75.4469 97.81L73.0781 102.638C80.3471 87.826 99.2519 82.1944 115.292 90.0664C115.744 90.2884 116.186 90.5206 116.624 90.7588C116.755 90.8296 116.883 90.9034 117.012 90.9754C117.331 91.1542 117.645 91.3366 117.956 91.5238C118.083 91.6006 118.21 91.6762 118.336 91.7542C118.738 92.0032 119.135 92.2576 119.524 92.5204C119.539 92.5306 119.554 92.5402 119.57 92.5504C119.972 92.824 120.365 93.1072 120.754 93.3952C120.868 93.4798 120.979 93.5662 121.092 93.652C121.375 93.8674 121.653 94.0864 121.928 94.309C122.041 94.4008 122.155 94.492 122.266 94.585C122.609 94.87 122.945 95.1604 123.275 95.4568C123.299 95.4784 123.324 95.4988 123.348 95.5204C123.7 95.839 124.04 96.1654 124.376 96.496C124.474 96.592 124.568 96.6898 124.665 96.7864C124.91 97.0336 125.151 97.2844 125.387 97.5382C125.485 97.6426 125.582 97.7464 125.677 97.8514C125.962 98.1652 126.241 98.4826 126.512 98.8048C126.541 98.839 126.571 98.8726 126.6 98.9068C126.897 99.2632 127.183 99.625 127.464 99.9916C127.545 100.097 127.623 100.205 127.703 100.311C127.907 100.584 128.107 100.86 128.302 101.139C128.383 101.255 128.464 101.37 128.543 101.486C128.772 101.823 128.995 102.162 129.211 102.505C129.239 102.55 129.269 102.594 129.297 102.639C129.538 103.026 129.767 103.418 129.99 103.814C130.054 103.926 130.114 104.039 130.176 104.153C130.339 104.448 130.496 104.745 130.648 105.044C130.712 105.169 130.775 105.293 130.837 105.419C131.01 105.771 131.177 106.125 131.337 106.482C131.362 106.538 131.389 106.593 131.414 106.649C131.595 107.06 131.765 107.475 131.928 107.892C131.974 108.008 132.016 108.126 132.06 108.243C132.178 108.555 132.29 108.869 132.398 109.184C132.443 109.316 132.488 109.448 132.531 109.58C132.648 109.939 132.759 110.3 132.863 110.663C132.882 110.73 132.904 110.798 132.923 110.867C133.042 111.294 133.15 111.723 133.25 112.154C133.278 112.274 133.303 112.394 133.33 112.515C133.4 112.838 133.466 113.161 133.526 113.486C133.552 113.622 133.577 113.759 133.6 113.897C133.662 114.26 133.717 114.625 133.766 114.99C133.776 115.067 133.789 115.142 133.798 115.218C133.853 115.656 133.896 116.094 133.931 116.534C133.94 116.652 133.946 116.771 133.954 116.891C133.976 117.221 133.993 117.552 134.004 117.884C134.008 118.023 134.012 118.162 134.015 118.301C134.021 118.662 134.021 119.024 134.014 119.387C134.012 119.47 134.013 119.554 134.011 119.637C134.006 119.773 133.995 119.908 133.989 120.044C133.972 120.447 133.949 120.851 133.915 121.253C133.898 121.446 133.874 121.638 133.853 121.83C133.817 122.173 133.777 122.516 133.727 122.858C133.697 123.066 133.663 123.273 133.628 123.481C133.573 123.81 133.513 124.138 133.445 124.466C133.403 124.674 133.359 124.883 133.311 125.091C133.235 125.424 133.15 125.757 133.06 126.089C133.004 126.301 132.95 126.513 132.888 126.724C132.842 126.88 132.793 127.035 132.744 127.19C132.653 127.482 132.556 127.774 132.455 128.065C132.399 128.225 132.342 128.385 132.283 128.544C132.172 128.845 132.053 129.144 131.93 129.443C131.873 129.581 131.819 129.72 131.76 129.858C131.575 130.29 131.38 130.721 131.171 131.147L133.54 126.319C133.749 125.892 133.943 125.463 134.129 125.031C134.188 124.893 134.242 124.754 134.299 124.616C134.422 124.317 134.54 124.018 134.652 123.717C134.711 123.558 134.768 123.398 134.824 123.238C134.925 122.948 135.022 122.657 135.113 122.364C135.161 122.208 135.211 122.053 135.257 121.897C135.279 121.821 135.305 121.746 135.326 121.671C135.365 121.535 135.392 121.398 135.428 121.263C135.518 120.93 135.603 120.598 135.679 120.264C135.727 120.056 135.77 119.848 135.813 119.64C135.88 119.312 135.941 118.983 135.996 118.655C136.031 118.447 136.065 118.24 136.095 118.032C136.145 117.69 136.184 117.347 136.221 117.003C136.242 116.811 136.265 116.619 136.282 116.427C136.316 116.024 136.339 115.62 136.356 115.217C136.361 115.104 136.373 114.992 136.377 114.88C136.378 114.857 136.377 114.834 136.378 114.811C136.38 114.728 136.379 114.644 136.381 114.56C136.388 114.198 136.388 113.836 136.382 113.474C136.379 113.335 136.375 113.197 136.37 113.058C136.36 112.727 136.343 112.395 136.321 112.064C136.313 111.945 136.307 111.827 136.297 111.707C136.262 111.268 136.219 110.829 136.164 110.392C136.154 110.316 136.142 110.24 136.132 110.164C136.083 109.799 136.028 109.434 135.966 109.071C135.943 108.933 135.917 108.797 135.892 108.66C135.832 108.335 135.766 108.011 135.695 107.687C135.668 107.568 135.644 107.448 135.616 107.328C135.516 106.897 135.409 106.467 135.289 106.04C135.27 105.972 135.248 105.905 135.229 105.836C135.125 105.474 135.015 105.113 134.897 104.753C134.855 104.621 134.809 104.489 134.764 104.357C134.659 104.041 134.546 103.728 134.428 103.416Z" fill="black"/>
<path d="M87.4284 146.846C86.8428 146.558 86.2692 146.256 85.7016 145.947C85.533 145.856 85.3674 145.761 85.2006 145.668C84.7866 145.436 84.3774 145.198 83.9736 144.955C83.8092 144.856 83.6448 144.758 83.4828 144.658C82.9608 144.335 82.4448 144.005 81.9408 143.663C81.9222 143.651 81.9024 143.639 81.8838 143.626C81.3618 143.271 80.8518 142.904 80.349 142.531C80.2008 142.421 80.0556 142.308 79.9092 142.197C79.542 141.918 79.1808 141.634 78.8244 141.345C78.6792 141.227 78.5328 141.109 78.3894 140.99C77.9448 140.619 77.508 140.244 77.0814 139.859C77.0502 139.831 77.0172 139.803 76.9854 139.775C76.53 139.362 76.0878 138.94 75.654 138.512C75.5262 138.386 75.402 138.258 75.2766 138.131C74.9598 137.811 74.649 137.488 74.3436 137.16C74.2176 137.024 74.0904 136.889 73.9662 136.752C73.5966 136.345 73.2348 135.933 72.8826 135.515C72.846 135.471 72.807 135.429 72.7704 135.384C72.3858 134.923 72.0138 134.453 71.6502 133.979C71.5452 133.842 71.4438 133.703 71.3406 133.565C71.0754 133.209 70.8162 132.852 70.563 132.49C70.4586 132.341 70.3536 132.191 70.251 132.041C69.9546 131.606 69.6666 131.167 69.3882 130.723C69.351 130.663 69.3108 130.605 69.2736 130.545C68.9622 130.044 68.6646 129.536 68.376 129.025C68.2932 128.878 68.214 128.73 68.133 128.582C67.9236 128.201 67.7202 127.816 67.5228 127.429C67.4406 127.267 67.3578 127.105 67.2774 126.942C67.053 126.486 66.837 126.028 66.6306 125.567C66.5982 125.493 66.5622 125.421 66.5298 125.348C66.2952 124.815 66.0744 124.278 65.8632 123.738C65.8038 123.586 65.7486 123.433 65.691 123.281C65.5386 122.877 65.3922 122.471 65.2536 122.063C65.1954 121.893 65.1372 121.722 65.0814 121.551C64.929 121.085 64.7856 120.616 64.6512 120.145C64.626 120.057 64.5978 119.97 64.5732 119.881C64.419 119.327 64.2792 118.77 64.1496 118.212C64.1136 118.058 64.0818 117.902 64.0482 117.747C63.9558 117.327 63.8706 116.906 63.7926 116.484C63.7602 116.307 63.7278 116.131 63.6978 115.955C63.6168 115.482 63.5454 115.009 63.4824 114.534C63.4692 114.436 63.453 114.338 63.4404 114.24C63.3696 113.673 63.3138 113.105 63.2682 112.535C63.2562 112.381 63.2484 112.227 63.2382 112.072C63.2094 111.643 63.1878 111.214 63.174 110.784C63.168 110.604 63.1626 110.424 63.159 110.244C63.1506 109.775 63.1512 109.304 63.1608 108.834C63.1632 108.726 63.1614 108.619 63.1644 108.512C63.1692 108.336 63.1848 108.162 63.192 107.987C63.2142 107.463 63.243 106.94 63.288 106.416C63.3096 106.166 63.3402 105.917 63.3672 105.666C63.4146 105.222 63.4668 104.779 63.5304 104.336C63.5694 104.066 63.6144 103.797 63.6594 103.527C63.7308 103.101 63.8094 102.675 63.8964 102.25C63.9516 101.98 64.0086 101.71 64.0704 101.441C64.1694 101.008 64.2798 100.577 64.395 100.146C64.4688 99.8709 64.539 99.5955 64.6194 99.3207C64.6788 99.1197 64.7424 98.9193 64.8054 98.7183C64.9242 98.3385 65.0496 97.9593 65.1816 97.5813C65.2536 97.3743 65.3268 97.1679 65.4036 96.9621C65.5482 96.5715 65.7024 96.1827 65.862 95.7945C65.9358 95.6157 66.0054 95.4357 66.0822 95.2575C66.3228 94.6971 66.5748 94.1391 66.8466 93.5859L64.4778 98.4135C64.2066 98.9667 63.9546 99.5247 63.7134 100.085C63.6372 100.263 63.567 100.443 63.4938 100.622C63.3348 101.009 63.18 101.398 63.0354 101.789C62.9592 101.995 62.886 102.202 62.8134 102.408C62.6814 102.786 62.556 103.165 62.4372 103.545C62.3742 103.746 62.3106 103.947 62.2512 104.148C62.2218 104.247 62.1882 104.345 62.16 104.444C62.1102 104.619 62.0742 104.797 62.0274 104.973C61.9122 105.404 61.8018 105.835 61.7028 106.268C61.641 106.537 61.5846 106.807 61.5288 107.078C61.4418 107.502 61.3632 107.928 61.2918 108.354C61.2468 108.624 61.2018 108.893 61.1628 109.164C61.0986 109.607 61.047 110.05 60.9996 110.494C60.9726 110.744 60.942 110.994 60.9204 111.244C60.8754 111.767 60.8466 112.29 60.8244 112.814C60.8178 112.959 60.8022 113.105 60.7974 113.25C60.7968 113.28 60.7974 113.31 60.7962 113.339C60.7932 113.447 60.795 113.554 60.7926 113.661C60.783 114.131 60.7824 114.602 60.7908 115.072C60.7938 115.251 60.7992 115.431 60.8052 115.611C60.819 116.04 60.8412 116.47 60.8694 116.899C60.8796 117.053 60.8874 117.207 60.8994 117.362C60.945 117.931 61.0008 118.499 61.0716 119.067C61.0836 119.165 61.1004 119.263 61.113 119.361C61.176 119.836 61.248 120.309 61.3284 120.782C61.3584 120.958 61.3908 121.134 61.4232 121.311C61.5018 121.733 61.587 122.154 61.6794 122.574C61.7136 122.729 61.7448 122.884 61.7808 123.039C61.9104 123.597 62.0502 124.155 62.205 124.709C62.229 124.796 62.2572 124.882 62.2824 124.97C62.4174 125.441 62.5608 125.91 62.7132 126.378C62.769 126.549 62.8272 126.72 62.8854 126.89C63.0246 127.298 63.1704 127.703 63.3228 128.108C63.3798 128.26 63.4356 128.413 63.495 128.565C63.7062 129.105 63.9264 129.642 64.1616 130.175C64.194 130.248 64.23 130.32 64.2624 130.394C64.4694 130.856 64.6854 131.315 64.9098 131.77C64.9896 131.932 65.0718 132.093 65.154 132.255C65.3514 132.643 65.5554 133.028 65.766 133.411C65.8464 133.558 65.925 133.705 66.0072 133.851C66.2958 134.363 66.594 134.87 66.9054 135.372C66.9426 135.432 66.9828 135.491 67.02 135.55C67.2984 135.993 67.587 136.433 67.8828 136.868C67.9854 137.018 68.0904 137.168 68.1948 137.317C68.448 137.679 68.7072 138.036 68.9724 138.392C69.0756 138.53 69.177 138.668 69.282 138.805C69.6456 139.28 70.017 139.749 70.4022 140.211C70.4394 140.256 70.4778 140.298 70.5144 140.342C70.8666 140.76 71.2284 141.173 71.598 141.579C71.7222 141.716 71.8488 141.851 71.9754 141.987C72.2808 142.315 72.5928 142.639 72.9096 142.959C73.0344 143.085 73.158 143.213 73.2846 143.337C73.7196 143.766 74.1624 144.189 74.6178 144.602C74.6472 144.629 74.679 144.655 74.7084 144.682C75.1368 145.068 75.5748 145.445 76.0206 145.816C76.164 145.936 76.3104 146.053 76.4556 146.171C76.812 146.46 77.1732 146.744 77.5404 147.024C77.6868 147.135 77.832 147.248 77.9802 147.357C78.483 147.731 78.9924 148.098 79.515 148.452C79.5336 148.465 79.5534 148.477 79.572 148.49C80.0766 148.831 80.592 149.161 81.114 149.484C81.276 149.585 81.441 149.683 81.6054 149.781C82.0092 150.024 82.4184 150.262 82.8324 150.494C82.9992 150.588 83.1654 150.682 83.3334 150.774C83.901 151.083 84.4746 151.384 85.0602 151.672C105.855 161.877 130.353 154.579 139.78 135.37L142.149 130.543C132.722 149.753 108.224 157.051 87.4284 146.846Z" fill="#228BE6"/>
<path opacity="0.4" d="M87.4284 146.846C86.8428 146.558 86.2692 146.256 85.7016 145.947C85.533 145.856 85.3674 145.761 85.2006 145.668C84.7866 145.436 84.3774 145.198 83.9736 144.955C83.8092 144.856 83.6448 144.758 83.4828 144.658C82.9608 144.335 82.4448 144.005 81.9408 143.663C81.9222 143.651 81.9024 143.639 81.8838 143.626C81.3618 143.271 80.8518 142.904 80.349 142.531C80.2008 142.421 80.0556 142.308 79.9092 142.197C79.542 141.918 79.1808 141.634 78.8244 141.345C78.6792 141.227 78.5328 141.109 78.3894 140.99C77.9448 140.619 77.508 140.244 77.0814 139.859C77.0502 139.831 77.0172 139.803 76.9854 139.775C76.53 139.362 76.0878 138.94 75.654 138.512C75.5262 138.386 75.402 138.258 75.2766 138.131C74.9598 137.811 74.649 137.488 74.3436 137.16C74.2176 137.024 74.0904 136.889 73.9662 136.752C73.5966 136.345 73.2348 135.933 72.8826 135.515C72.846 135.471 72.807 135.429 72.7704 135.384C72.3858 134.923 72.0138 134.453 71.6502 133.979C71.5452 133.842 71.4438 133.703 71.3406 133.565C71.0754 133.209 70.8162 132.852 70.563 132.49C70.4586 132.341 70.3536 132.191 70.251 132.041C69.9546 131.606 69.6666 131.167 69.3882 130.723C69.351 130.663 69.3108 130.605 69.2736 130.545C68.9622 130.044 68.6646 129.536 68.376 129.025C68.2932 128.878 68.214 128.73 68.133 128.582C67.9236 128.201 67.7202 127.816 67.5228 127.429C67.4406 127.267 67.3578 127.105 67.2774 126.942C67.053 126.486 66.837 126.028 66.6306 125.567C66.5982 125.493 66.5622 125.421 66.5298 125.348C66.2952 124.815 66.0744 124.278 65.8632 123.738C65.8038 123.586 65.7486 123.433 65.691 123.281C65.5386 122.877 65.3922 122.471 65.2536 122.063C65.1954 121.893 65.1372 121.722 65.0814 121.551C64.929 121.085 64.7856 120.616 64.6512 120.145C64.626 120.057 64.5978 119.97 64.5732 119.881C64.419 119.327 64.2792 118.77 64.1496 118.212C64.1136 118.058 64.0818 117.902 64.0482 117.747C63.9558 117.327 63.8706 116.906 63.7926 116.484C63.7602 116.307 63.7278 116.131 63.6978 115.955C63.6168 115.482 63.5454 115.009 63.4824 114.534C63.4692 114.436 63.453 114.338 63.4404 114.24C63.3696 113.673 63.3138 113.105 63.2682 112.535C63.2562 112.381 63.2484 112.227 63.2382 112.072C63.2094 111.643 63.1878 111.214 63.174 110.784C63.168 110.604 63.1626 110.424 63.159 110.244C63.1506 109.775 63.1512 109.304 63.1608 108.834C63.1632 108.726 63.1614 108.619 63.1644 108.512C63.1692 108.336 63.1848 108.162 63.192 107.987C63.2142 107.463 63.243 106.94 63.288 106.416C63.3096 106.166 63.3402 105.917 63.3672 105.666C63.4146 105.222 63.4668 104.779 63.5304 104.336C63.5694 104.066 63.6144 103.797 63.6594 103.527C63.7308 103.101 63.8094 102.675 63.8964 102.25C63.9516 101.98 64.0086 101.71 64.0704 101.441C64.1694 101.008 64.2798 100.577 64.395 100.146C64.4688 99.8709 64.539 99.5955 64.6194 99.3207C64.6788 99.1197 64.7424 98.9193 64.8054 98.7183C64.9242 98.3385 65.0496 97.9593 65.1816 97.5813C65.2536 97.3743 65.3268 97.1679 65.4036 96.9621C65.5482 96.5715 65.7024 96.1827 65.862 95.7945C65.9358 95.6157 66.0054 95.4357 66.0822 95.2575C66.3228 94.6971 66.5748 94.1391 66.8466 93.5859L64.4778 98.4135C64.2066 98.9667 63.9546 99.5247 63.7134 100.085C63.6372 100.263 63.567 100.443 63.4938 100.622C63.3348 101.009 63.18 101.398 63.0354 101.789C62.9592 101.995 62.886 102.202 62.8134 102.408C62.6814 102.786 62.556 103.165 62.4372 103.545C62.3742 103.746 62.3106 103.947 62.2512 104.148C62.2218 104.247 62.1882 104.345 62.16 104.444C62.1102 104.619 62.0742 104.797 62.0274 104.973C61.9122 105.404 61.8018 105.835 61.7028 106.268C61.641 106.537 61.5846 106.807 61.5288 107.078C61.4418 107.502 61.3632 107.928 61.2918 108.354C61.2468 108.624 61.2018 108.893 61.1628 109.164C61.0986 109.607 61.047 110.05 60.9996 110.494C60.9726 110.744 60.942 110.994 60.9204 111.244C60.8754 111.767 60.8466 112.29 60.8244 112.814C60.8178 112.959 60.8022 113.105 60.7974 113.25C60.7968 113.28 60.7974 113.31 60.7962 113.339C60.7932 113.447 60.795 113.554 60.7926 113.661C60.783 114.131 60.7824 114.602 60.7908 115.072C60.7938 115.251 60.7992 115.431 60.8052 115.611C60.819 116.04 60.8412 116.47 60.8694 116.899C60.8796 117.053 60.8874 117.207 60.8994 117.362C60.945 117.931 61.0008 118.499 61.0716 119.067C61.0836 119.165 61.1004 119.263 61.113 119.361C61.176 119.836 61.248 120.309 61.3284 120.782C61.3584 120.958 61.3908 121.134 61.4232 121.311C61.5018 121.733 61.587 122.154 61.6794 122.574C61.7136 122.729 61.7448 122.884 61.7808 123.039C61.9104 123.597 62.0502 124.155 62.205 124.709C62.229 124.796 62.2572 124.882 62.2824 124.97C62.4174 125.441 62.5608 125.91 62.7132 126.378C62.769 126.549 62.8272 126.72 62.8854 126.89C63.0246 127.298 63.1704 127.703 63.3228 128.108C63.3798 128.26 63.4356 128.413 63.495 128.565C63.7062 129.105 63.9264 129.642 64.1616 130.175C64.194 130.248 64.23 130.32 64.2624 130.394C64.4694 130.856 64.6854 131.315 64.9098 131.77C64.9896 131.932 65.0718 132.093 65.154 132.255C65.3514 132.643 65.5554 133.028 65.766 133.411C65.8464 133.558 65.925 133.705 66.0072 133.851C66.2958 134.363 66.594 134.87 66.9054 135.372C66.9426 135.432 66.9828 135.491 67.02 135.55C67.2984 135.993 67.587 136.433 67.8828 136.868C67.9854 137.018 68.0904 137.168 68.1948 137.317C68.448 137.679 68.7072 138.036 68.9724 138.392C69.0756 138.53 69.177 138.668 69.282 138.805C69.6456 139.28 70.017 139.749 70.4022 140.211C70.4394 140.256 70.4778 140.298 70.5144 140.342C70.8666 140.76 71.2284 141.173 71.598 141.579C71.7222 141.716 71.8488 141.851 71.9754 141.987C72.2808 142.315 72.5928 142.639 72.9096 142.959C73.0344 143.085 73.158 143.213 73.2846 143.337C73.7196 143.766 74.1624 144.189 74.6178 144.602C74.6472 144.629 74.679 144.655 74.7084 144.682C75.1368 145.068 75.5748 145.445 76.0206 145.816C76.164 145.936 76.3104 146.053 76.4556 146.171C76.812 146.46 77.1732 146.744 77.5404 147.024C77.6868 147.135 77.832 147.248 77.9802 147.357C78.483 147.731 78.9924 148.098 79.515 148.452C79.5336 148.465 79.5534 148.477 79.572 148.49C80.0766 148.831 80.592 149.161 81.114 149.484C81.276 149.585 81.441 149.683 81.6054 149.781C82.0092 150.024 82.4184 150.262 82.8324 150.494C82.9992 150.588 83.1654 150.682 83.3334 150.774C83.901 151.083 84.4746 151.384 85.0602 151.672C105.855 161.877 130.353 154.579 139.78 135.37L142.149 130.543C132.722 149.753 108.224 157.051 87.4284 146.846Z" fill="black"/>
<path d="M78.7513 77.9557L78.4219 77.4541C79.8949 76.4863 81.4549 75.6031 83.0581 74.8291L83.3197 75.3697C81.7387 76.1323 80.2027 77.0023 78.7513 77.9557ZM87.8131 73.5205L87.6175 72.9529C94.5991 70.5475 102.283 69.9745 109.841 71.2945L109.738 71.8855C102.28 70.5829 94.6987 71.1487 87.8131 73.5205Z" fill="#228BE6"/>
<path d="M66.8453 93.5882C76.2695 74.384 100.765 67.0915 121.561 77.297C142.355 87.5024 151.573 111.34 142.149 130.544C132.722 149.753 108.224 157.051 87.4289 146.846C66.6335 136.641 57.4181 112.798 66.8453 93.5882ZM133.54 126.319C140.809 111.508 133.703 93.1112 117.662 85.2392C101.622 77.3671 82.7171 82.9988 75.4481 97.8104C68.1743 112.632 75.2909 131.022 91.3313 138.893C107.372 146.765 126.266 141.141 133.54 126.319Z" fill="#228BE6"/>
<path d="M177.575 144.165L174.598 150.234C174.022 151.406 172.592 151.872 171.437 151.263L132.857 130.944L136.78 122.951L176.456 141.036C177.644 141.577 178.151 142.993 177.575 144.165Z" fill="#228BE6"/>
<path opacity="0.1" d="M134.094 126.59C141.501 111.496 134.259 92.7484 117.913 84.7264C101.567 76.7044 82.3013 82.4434 74.8937 97.5376C67.4813 112.642 74.7335 131.382 91.0799 139.404C107.426 147.425 126.681 141.695 134.094 126.59Z" fill="white"/>
<path opacity="0.1" d="M117.913 84.7269C113.727 82.6725 109.349 81.5265 105.028 81.2031L72.336 105.668C71.6814 109.87 71.9718 114.15 73.1196 118.248L117.913 84.7269Z" fill="white"/>
<path d="M166.287 132.941C163.852 132.067 162.178 133.685 160.491 134.528C160.205 134.672 160.29 135.521 160.864 135.606C161.87 135.756 162.365 135.59 162.914 135.255C163.505 135.807 165.66 136.726 167.233 135.069C167.255 133.884 166.287 132.941 166.287 132.941Z" fill="#E1948D"/>
<path d="M198.478 76.071H197.086C197.036 76.071 196.99 76.0488 196.958 76.0098C196.927 75.9714 196.915 75.9204 196.925 75.8718L197.621 72.6642C197.638 72.5886 197.705 72.5352 197.782 72.5352C197.86 72.5352 197.926 72.5892 197.943 72.6642L198.638 75.8718C198.649 75.9204 198.637 75.9708 198.605 76.0098C198.574 76.0488 198.527 76.071 198.478 76.071ZM197.289 75.7428H198.274L197.782 73.473L197.289 75.7428Z" fill="white"/>
<path d="M158.245 58.2613L154.84 63.6638L154.3 63.3236C153.38 62.744 152.7 62.1698 152.258 61.5998C151.816 61.0298 151.488 60.3896 151.274 59.6786C151.06 58.9676 150.809 57.5156 150.523 55.322C150.382 54.1598 150.05 53.4145 149.529 53.0863C149.008 52.7581 148.505 52.6568 148.022 52.7822C147.539 52.9082 147.1 53.2838 146.706 53.909C146.282 54.5816 146.153 55.2794 146.321 56.0006C146.489 56.7224 147.089 57.494 148.12 58.316L143.96 63.4021C142.052 61.9345 140.884 60.1682 140.456 58.1048C140.029 56.0408 140.651 53.6822 142.324 51.0284C143.626 48.962 145.109 47.5658 146.772 46.8398C149.025 45.8498 151.123 45.9668 153.066 47.1914C153.872 47.699 154.508 48.4118 154.976 49.3292C155.444 50.2466 155.786 51.7328 156 53.7884C156.155 55.2236 156.383 56.2118 156.685 56.7523C156.985 57.2917 157.505 57.7951 158.245 58.2613ZM156.159 64.7534L159.806 58.967L164.909 62.1842L161.263 67.9706L156.159 64.7534Z" fill="#228BE6"/>
<path d="M206.41 44.152L201.913 41.7052L202.158 41.2558C202.574 40.4908 202.999 39.9166 203.432 39.5332C203.866 39.1504 204.361 38.8552 204.919 38.647C205.477 38.4394 206.626 38.1646 208.366 37.8226C209.288 37.6498 209.868 37.3462 210.104 36.9124C210.34 36.4786 210.395 36.0718 210.269 35.6914C210.144 35.311 209.821 34.9792 209.3 34.696C208.739 34.3912 208.175 34.3246 207.607 34.4956C207.038 34.6666 206.451 35.1862 205.846 36.0532L201.563 32.9866C202.64 31.384 203.993 30.3586 205.622 29.911C207.251 29.4628 209.17 29.8402 211.379 31.042C213.1 31.978 214.292 33.0922 214.96 34.3852C215.867 36.1366 215.881 37.8214 215.002 39.439C214.637 40.1098 214.099 40.6558 213.389 41.077C212.68 41.4988 211.508 41.848 209.875 42.1246C208.735 42.3226 207.956 42.5554 207.538 42.8242C207.121 43.0948 206.744 43.537 206.41 44.152ZM201.109 42.817L205.925 45.4378L203.614 49.6864L198.797 47.0656L201.109 42.817Z" fill="#228BE6"/>
<path d="M213.69 56.7885L212.497 52.9635L212.879 52.8441C213.53 52.6413 214.082 52.5501 214.534 52.5711C214.986 52.5921 215.425 52.6965 215.852 52.8837C216.279 53.0709 217.074 53.5425 218.238 54.2991C218.851 54.7047 219.341 54.8499 219.71 54.7347C220.079 54.6195 220.332 54.4209 220.469 54.1389C220.606 53.8569 220.605 53.4945 220.466 53.0517C220.318 52.5753 220.037 52.2303 219.625 52.0167C219.212 51.8031 218.599 51.7749 217.787 51.9327L217.052 47.8761C218.53 47.5623 219.848 47.7237 221.008 48.3597C222.167 48.9957 223.04 50.2533 223.626 52.1325C224.082 53.5953 224.145 54.8721 223.815 55.9617C223.37 57.4407 222.46 58.3947 221.084 58.8237C220.514 59.0013 219.914 59.0157 219.286 58.8657C218.657 58.7157 217.809 58.2735 216.74 57.5391C215.992 57.0285 215.428 56.7351 215.047 56.6589C214.666 56.5815 214.213 56.6253 213.69 56.7885ZM211.439 53.1495L212.717 57.2463L209.104 58.3731L207.826 54.2763L211.439 53.1495Z" fill="#228BE6"/>
</svg>
